{"title":"We.Were.Soldiers.2002.SWESUB.DVDRip.XviD.AC3.(5.1).-Zen_Bud","uid":5626676,"size":1472945098,"categoryP":"video","categoryS":"movies","magnet":"?xt=urn:btih:ce963a8788456ec379182ec267841222f29c2517&amp;dn=We.Were.Soldiers.2002.SWESUB.DVDRip.XviD.AC3.%285.1%29.-Zen_Bud&amp;tr=udp%3A%2F%2Ftracker.openbittorrent.com%3A80&amp;tr=udp%3A%2F%2Fopen.demonii.com%3A1337&amp;tr=udp%3A%2F%2Ftracker.coppersurfer.tk%3A6969&amp;tr=udp%3A%2F%2Fexodus.desync.com%3A6969","seeders":1,"leechers":0,"uploader":"Zen_Bud","files":-1,"time":1276505583,"description":"General\nComplete name                    : We.Were.Soldiers.avi\nFormat                           : AVI\nFormat/Info                      : Audio Video Interleave\nFile size                        : 1.37 GiB\nDuration                         : 2h 12mn\nOverall bit rate                 : 1 479 Kbps\n\nVideo\n\nFormat                           : MPEG-4 Visual\nCodec ID/Hint                    : XviD\nDuration                         : 2h 12mn\nBit rate                         : 1 020 Kbps\nWidth                            : 720 pixels\nHeight                           : 432 pixels\nDisplay aspect ratio             : 2.35:1\nStream size                      : 969 MiB (69%)\nWriting library                  : XviD 1.1.2 (UTC 2006-11-01)\n\nAudio\n\nFormat                           : AC-3\nDuration                         : 2h 12mn\nBit rate                         : 448 Kbps\nChannel(s)                       : 6 channels\nChannel positions                : Front: L C R, Side: L R, LFE\nSampling rate                    : 48.0 KHz\nStream size                      : 426 MiB (30%)\n\n\n","torrent":{"xt":"urn:btih:ce963a8788456ec379182ec267841222f29c2517","amp;dn":"We.Were.Soldiers.2002.SWESUB.DVDRip.XviD.AC3.%285.1%29.-Zen_Bud","amp;tr":["udp%3A%2F%2Ftracker.openbittorrent.com%3A80","udp%3A%2F%2Fopen.demonii.com%3A1337","udp%3A%2F%2Ftracker.coppersurfer.tk%3A6969","udp%3A%2F%2Fexodus.desync.com%3A6969"],"infoHash":"ce963a8788456ec379182ec267841222f29c2517","infoHashBuffer":{"type":"Buffer","data":[206,150,58,135,136,69,110,195,121,24,46,194,103,132,18,34,242,156,37,23]},"announce":[],"urlList":[]}}